<svg width="35" height="46" viewBox="0 0 35 46" fill="none" xmlns="http://www.w3.org/2000/svg">
<path d="M3 3H20.3333C22.6319 3 24.8363 3.91309 26.4616 5.53841C28.0869 7.16372 29 9.36812 29 11.6667C29 13.9652 28.0869 16.1696 26.4616 17.7949C24.8363 19.4202 22.6319 20.3333 20.3333 20.3333H3V3Z" stroke="#4DC58B" stroke-width="6" stroke-linecap="round" stroke-linejoin="round"/>
<path d="M3 25.3333H22.5C24.7985 25.3333 27.0029 26.2464 28.6283 27.8717C30.2536 29.497 31.1667 31.7014 31.1667 34C31.1667 36.2985 30.2536 38.5029 28.6283 40.1282C27.0029 41.7536 24.7985 42.6666 22.5 42.6666H3V25.3333Z" stroke="#2D9BA2" stroke-width="6" stroke-linecap="round" stroke-linejoin="round"/>
</svg>
