<svg width="32" height="44" viewBox="0 0 32 44" fill="none" xmlns="http://www.w3.org/2000/svg">
<path d="M2 2H19.3333C21.6319 2 23.8363 2.91309 25.4616 4.53841C27.0869 6.16372 28 8.36812 28 10.6667C28 12.9652 27.0869 15.1696 25.4616 16.7949C23.8363 18.4202 21.6319 19.3333 19.3333 19.3333H2V2Z" stroke="#4DC58B" stroke-width="3" stroke-linecap="round" stroke-linejoin="round"/>
<path d="M2 24.3333H21.5C23.7985 24.3333 26.0029 25.2464 27.6283 26.8717C29.2536 28.497 30.1667 30.7014 30.1667 33C30.1667 35.2985 29.2536 37.5029 27.6283 39.1282C26.0029 40.7536 23.7985 41.6666 21.5 41.6666H2V24.3333Z" stroke="#2D9BA2" stroke-width="3" stroke-linecap="round" stroke-linejoin="round"/>
</svg>
