<svg width="96" height="48" viewBox="0 0 96 48" fill="none" xmlns="http://www.w3.org/2000/svg">
<path d="M2 2H19.3333C21.6319 2 23.8363 2.91309 25.4616 4.53841C27.0869 6.16372 28 8.36812 28 10.6667C28 12.9652 27.0869 15.1696 25.4616 16.7949C23.8363 18.4202 21.6319 19.3333 19.3333 19.3333H2V2Z" stroke="#4DC58B" stroke-width="3" stroke-linecap="round" stroke-linejoin="round"/>
<path d="M2 24.3333H21.5C23.7985 24.3333 26.0029 25.2464 27.6283 26.8717C29.2536 28.497 30.1667 30.7014 30.1667 33C30.1667 35.2985 29.2536 37.5029 27.6283 39.1282C26.0029 40.7536 23.7985 41.6666 21.5 41.6666H2V24.3333Z" stroke="#2D9BA2" stroke-width="3" stroke-linecap="round" stroke-linejoin="round"/>
<path d="M2 24.3333H21.5C23.7985 24.3333 26.0029 25.2464 27.6283 26.8717C29.2536 28.497 30.1667 30.7014 30.1667 33C30.1667 35.2985 29.2536 37.5029 27.6283 39.1282C26.0029 40.7536 23.7985 41.6666 21.5 41.6666H2V24.3333Z" stroke="#2D9BA2" stroke-width="3" stroke-linecap="round" stroke-linejoin="round"/>
<path d="M38.1875 43.2695C36.7031 43.2695 35.6406 42.8906 35 42.1328C34.3672 41.375 34.0508 40.1133 34.0508 38.3477V31.1523H35.8555V38.3477C35.8555 39.5742 36.0742 40.4492 36.5117 40.9727C36.9492 41.4961 37.6836 41.7578 38.7148 41.7578C39.9336 41.7578 40.8008 41.4883 41.3164 40.9492C41.8398 40.4102 42.1016 39.5117 42.1016 38.2539V31.1523H43.9062V43H42.4297L42.2891 41.2891C41.9062 42 41.3984 42.5078 40.7656 42.8125C40.1406 43.1172 39.2812 43.2695 38.1875 43.2695ZM54.1681 42.3438V41.0195C53.7697 41.6602 53.258 42.1172 52.633 42.3906C52.008 42.6641 51.1681 42.8008 50.1134 42.8008C48.6056 42.8008 47.5275 42.4219 46.8791 41.6641C46.2306 40.9062 45.9064 39.6445 45.9064 37.8789V31.1523H47.7111V37.8789C47.7111 39.1055 47.9338 39.9805 48.3791 40.5039C48.8322 41.0273 49.5861 41.2891 50.6408 41.2891C51.883 41.2891 52.7697 41.0195 53.3009 40.4805C53.8322 39.9414 54.0978 39.043 54.0978 37.7852V31.1523H55.9025V42.2734C55.9025 44.25 55.5041 45.6602 54.7072 46.5039C53.9181 47.3477 52.59 47.7695 50.7228 47.7695C49.1213 47.7695 47.9338 47.4922 47.1603 46.9375C46.3869 46.3906 45.9923 45.5469 45.9767 44.4062H47.8166C47.84 45.0938 48.0705 45.582 48.508 45.8711C48.9533 46.1602 49.6838 46.3047 50.6994 46.3047C51.6369 46.3047 52.3556 46.1836 52.8556 45.9414C53.3556 45.6992 53.6994 45.2891 53.8869 44.7109C54.0744 44.1328 54.1681 43.3438 54.1681 42.3438ZM82.2153 43.2695C80.9419 43.2695 79.9145 43.0625 79.1333 42.6484C78.352 42.2344 77.7817 41.5742 77.4223 40.668C77.0708 39.7617 76.895 38.5664 76.895 37.082C76.895 35.0117 77.2739 33.4609 78.0317 32.4297C78.7973 31.3984 80.1372 30.8828 82.0513 30.8828C83.3716 30.8828 84.4028 31.1172 85.145 31.5859C85.8872 32.0469 86.4106 32.7578 86.7153 33.7188C87.02 34.6797 87.1723 35.8984 87.1723 37.375H78.7231C78.7231 38.9609 78.9927 40.0977 79.5317 40.7852C80.0786 41.4648 80.9888 41.8047 82.2622 41.8047C83.3013 41.8047 84.0473 41.6523 84.5005 41.3477C84.9614 41.0352 85.2075 40.5 85.2388 39.7422H87.0786C87.0786 40.9453 86.6802 41.8359 85.8833 42.4141C85.0942 42.9844 83.8716 43.2695 82.2153 43.2695ZM78.7466 36.0391H85.3442C85.313 35.0938 85.188 34.3516 84.9692 33.8125C84.7583 33.2734 84.4184 32.8906 83.9497 32.6641C83.4809 32.4375 82.8481 32.3242 82.0513 32.3242C81.2544 32.3242 80.6177 32.4375 80.1411 32.6641C79.6723 32.8906 79.3286 33.2734 79.1098 33.8125C78.8989 34.3516 78.7778 35.0938 78.7466 36.0391ZM89.3952 43.2578C88.8952 43.2578 88.528 43.1562 88.2936 42.9531C88.067 42.75 87.9538 42.3906 87.9538 41.875C87.9538 41.3594 88.067 41 88.2936 40.7969C88.528 40.5938 88.8952 40.4922 89.3952 40.4922C89.903 40.4922 90.2702 40.5938 90.4967 40.7969C90.7233 41 90.8366 41.3594 90.8366 41.875C90.8366 42.3906 90.7233 42.75 90.4967 42.9531C90.2702 43.1562 89.903 43.2578 89.3952 43.2578Z" fill="#2D9BA2"/>
<path d="M58.0784 43V26.1133H61.5472L66.3519 38.9453H66.762L71.5902 26.1133H75.0706V43H73.2425V27.9297H72.8206L67.9105 40.9609H65.2034L60.3284 27.9297H59.9066V43H58.0784Z" fill="#4DC58B"/>
</svg>
