<svg width="126" height="48" viewBox="0 0 126 48" fill="none" xmlns="http://www.w3.org/2000/svg">
<path d="M2 2H19.3333C21.6319 2 23.8363 2.91309 25.4616 4.53841C27.0869 6.16372 28 8.36812 28 10.6667C28 12.9652 27.0869 15.1696 25.4616 16.7949C23.8363 18.4202 21.6319 19.3333 19.3333 19.3333H2V2Z" stroke="#4DC58B" stroke-width="3" stroke-linecap="round" stroke-linejoin="round"/>
<path d="M2 24.3333H21.5C23.7985 24.3333 26.0029 25.2464 27.6283 26.8717C29.2536 28.497 30.1667 30.7014 30.1667 33C30.1667 35.2985 29.2536 37.5029 27.6283 39.1282C26.0029 40.7536 23.7985 41.6666 21.5 41.6666H2V24.3333Z" stroke="#2D9BA2" stroke-width="3" stroke-linecap="round" stroke-linejoin="round"/>
<path d="M2 24.3333H21.5C23.7985 24.3333 26.0029 25.2464 27.6283 26.8717C29.2536 28.497 30.1667 30.7014 30.1667 33C30.1667 35.2985 29.2536 37.5029 27.6283 39.1282C26.0029 40.7536 23.7985 41.6666 21.5 41.6666H2V24.3333Z" stroke="#2D9BA2" stroke-width="3" stroke-linecap="round" stroke-linejoin="round"/>
<path d="M38.1875 43.2695C36.7031 43.2695 35.6406 42.8906 35 42.1328C34.3672 41.375 34.0508 40.1133 34.0508 38.3477V31.1523H35.8555V38.3477C35.8555 39.5742 36.0742 40.4492 36.5117 40.9727C36.9492 41.4961 37.6836 41.7578 38.7148 41.7578C39.9336 41.7578 40.8008 41.4883 41.3164 40.9492C41.8398 40.4102 42.1016 39.5117 42.1016 38.2539V31.1523H43.9062V43H42.4297L42.2891 41.2891C41.9062 42 41.3984 42.5078 40.7656 42.8125C40.1406 43.1172 39.2812 43.2695 38.1875 43.2695ZM54.1681 42.3438V41.0195C53.7697 41.6602 53.258 42.1172 52.633 42.3906C52.008 42.6641 51.1681 42.8008 50.1134 42.8008C48.6056 42.8008 47.5275 42.4219 46.8791 41.6641C46.2306 40.9062 45.9064 39.6445 45.9064 37.8789V31.1523H47.7111V37.8789C47.7111 39.1055 47.9338 39.9805 48.3791 40.5039C48.8322 41.0273 49.5861 41.2891 50.6408 41.2891C51.883 41.2891 52.7697 41.0195 53.3009 40.4805C53.8322 39.9414 54.0978 39.043 54.0978 37.7852V31.1523H55.9025V42.2734C55.9025 44.25 55.5041 45.6602 54.7072 46.5039C53.9181 47.3477 52.59 47.7695 50.7228 47.7695C49.1213 47.7695 47.9338 47.4922 47.1603 46.9375C46.3869 46.3906 45.9923 45.5469 45.9767 44.4062H47.8166C47.84 45.0938 48.0705 45.582 48.508 45.8711C48.9533 46.1602 49.6838 46.3047 50.6994 46.3047C51.6369 46.3047 52.3556 46.1836 52.8556 45.9414C53.3556 45.6992 53.6994 45.2891 53.8869 44.7109C54.0744 44.1328 54.1681 43.3438 54.1681 42.3438ZM68.4575 43V26.1016H70.2622V32.5703C70.6528 31.9844 71.1333 31.5586 71.7036 31.293C72.2817 31.0195 73.1255 30.8828 74.2348 30.8828C75.7505 30.8828 76.8286 31.2617 77.4692 32.0195C78.1177 32.7695 78.4419 34.0312 78.4419 35.8047V43H76.6372V35.8047C76.6372 34.5781 76.4106 33.7031 75.9575 33.1797C75.5122 32.6562 74.7622 32.3945 73.7075 32.3945C72.4653 32.3945 71.5786 32.6641 71.0473 33.2031C70.5239 33.7422 70.2622 34.6406 70.2622 35.8984V43H68.4575ZM81.7663 34.3516H80.1373C80.1373 33.1719 80.5163 32.3008 81.2741 31.7383C82.0319 31.1758 83.1998 30.8945 84.778 30.8945C86.3795 30.8945 87.5631 31.1875 88.3288 31.7734C89.1022 32.3594 89.4889 33.2617 89.4889 34.4805V40.5273C89.4889 41.0508 89.567 41.3945 89.7233 41.5586C89.8795 41.7227 90.192 41.7852 90.6608 41.7461V43.1758C90.5123 43.2305 90.3795 43.2617 90.2623 43.2695C90.1452 43.2773 90.0045 43.2812 89.8405 43.2812C89.2702 43.2812 88.8092 43.1289 88.4577 42.8242C88.1139 42.5195 87.942 42.1172 87.942 41.6172C87.5514 42.1406 87.0006 42.5469 86.2897 42.8359C85.5866 43.125 84.7741 43.2695 83.8522 43.2695C82.5319 43.2695 81.5163 42.9609 80.8053 42.3438C80.0944 41.7188 79.7389 40.8359 79.7389 39.6953C79.7389 38.3828 80.1569 37.4492 80.9928 36.8945C81.8366 36.332 83.2467 36.0508 85.2233 36.0508H87.6842V34.4688C87.6842 33.7031 87.4616 33.1602 87.0163 32.8398C86.5709 32.5117 85.8248 32.3477 84.778 32.3477C83.692 32.3477 82.9186 32.5039 82.4577 32.8164C81.9967 33.1211 81.7663 33.6328 81.7663 34.3516ZM87.6959 39.4258V37.3867H85.2116C83.9147 37.3867 82.985 37.5625 82.4225 37.9141C81.8678 38.2578 81.5905 38.8398 81.5905 39.6602C81.5905 40.3555 81.8248 40.8867 82.2936 41.2539C82.7623 41.6211 83.4264 41.8047 84.2858 41.8047C85.3795 41.8047 86.2194 41.6016 86.8053 41.1953C87.3991 40.7891 87.6959 40.1992 87.6959 39.4258ZM96.8797 32.5469H93.9734V39.8594C93.9734 40.5234 94.1141 41 94.3953 41.2891C94.6844 41.5703 95.1453 41.7109 95.7781 41.7109C96.0281 41.7109 96.2664 41.6992 96.493 41.6758C96.7273 41.6445 96.9422 41.6133 97.1375 41.582V43.1406C96.9344 43.1797 96.6961 43.2148 96.4227 43.2461C96.1492 43.2852 95.8172 43.3047 95.4266 43.3047C93.2547 43.3047 92.1688 42.0742 92.1688 39.6133V32.5469H90.0359V31.1172H92.1688V27.8711H93.9617V31.1172H96.8797V32.5469Z" fill="#2D9BA2"/>
<path d="M55.43 27.8945V26.1133H67.9339V27.8945H62.6956V43.0117H60.6683V27.8945H55.43Z" fill="#4DC58B"/>
</svg>
